<?xml version="1.0" encoding="utf-8"?>
<!-- Generator: Adobe Illustrator 27.0.0, SVG Export Plug-In . SVG Version: 6.00 Build 0)  -->
<svg version="1.1" id="Layer_1" xmlns="http://www.w3.org/2000/svg" xmlns:xlink="http://www.w3.org/1999/xlink" x="0px" y="0px"
	 viewBox="0 0 623.1 470" style="enable-background:new 0 0 623.1 470;" xml:space="preserve">
<style type="text/css">
	.st0{fill:#263238;}
	.st1{fill:#E0E0E0;}
	.st2{fill:#455A64;}
	.st3{opacity:0.3;}
	.st4{fill:#FFFFFF;}
	.st5{fill:#FFBF9D;}
	.st6{fill:#FF9A6C;}
	.st7{fill:#6c5ce7;}
</style>
<g id="freepik--Floor--inject-21">
	<path class="st0" d="M623.1,438.9c0,0.1-136,0.3-303.9,0.3S15.2,439,15.2,438.9s136-0.3,304-0.3S623.1,438.8,623.1,438.9z"/>
</g>
<g id="freepik--Padlock--inject-21">
	<path class="st1" d="M576.7,287.4l-22-4.6l27.8-133.9c1-7-0.5-14.2-4.3-20.1c-35-48.5-92-28.8-100.8,13.1l-25,119.7l-22-4.6
		l28.1-134.8c2.9-14.1,12.1-26.2,24.9-32.8c70.8-36.5,130.2,20.2,118.1,78.4L576.7,287.4z"/>
	<path class="st0" d="M576.7,287.4c0,0,0.1-0.8,0.5-2.4c0.3-1.6,0.8-3.9,1.4-7l5.6-26.6c2.4-11.5,5.3-25.7,8.7-42.1l5.6-26.2
		c1.7-9.3,4.6-19,4.7-29.6c0.2-11-2.2-21.9-6.8-31.9c-0.6-1.3-1.2-2.6-1.8-3.9l-2.2-3.8c-1.5-2.5-3.2-4.9-5-7.3
		c-0.9-1.2-1.9-2.3-2.9-3.4c-1-1.1-1.9-2.3-3.1-3.3c-2.2-2.2-4.5-4.2-6.9-6c-4.9-3.9-10.3-7.1-16.1-9.6l-4.5-1.7l-2.5-0.8l-2.3-0.6
		l-4.7-1.2c-1.6-0.4-3.2-0.5-4.8-0.8c-13.4-2-27.1-0.2-39.6,5.1c-20.1,8.5-35.4,25.5-41.7,46.3c-2,7.1-3.3,14.5-4.9,21.9
		c-6.2,29.7-12.6,60.4-19.1,91.8c-0.9,4.2-1.8,8.3-2.6,12.6l-0.4-0.6l22,4.6l-0.6,0.4c5-23.8,9.8-47.1,14.5-69.6
		c2.4-11.3,4.7-22.4,7-33.4l3.4-16.3c1.2-5.4,3.1-10.6,5.8-15.4c5.4-9.3,13.4-16.8,23.2-21.5c1.2-0.5,2.3-1.2,3.6-1.6l3.7-1.3
		c2.5-0.7,5-1.3,7.5-1.7s5.1-0.6,7.6-0.6c1.3,0,2.5,0,3.8,0.2h1.9l1.9,0.3c4.9,0.7,9.7,2,14.2,4c4.4,2,8.5,4.6,12.2,7.6
		c7.1,6,12.5,13.7,15.7,22.5c3.1,8.2,4,17,2.6,25.6l-0.5,3.1c-0.2,1-0.4,2-0.6,3l-1.3,6c-0.8,3.9-1.6,7.8-2.4,11.5
		c-3.2,15.1-6.1,29-8.7,41.5c-5.3,25-9.4,44.5-12.1,57.6l-0.1-0.2l16.7,3.5l4.1,0.9l1.3,0.3l-1.3-0.3l-4-0.8l-16.7-3.4l0,0v-0.2
		l11.9-57.6c2.6-12.5,5.6-26.4,8.6-41.5c0.8-3.8,1.6-7.6,2.4-11.5c0.4-1.9,0.8-4,1.2-5.9c0.2-1,0.4-2,0.6-3s0.3-2,0.5-3
		c1.3-8.5,0.4-17.2-2.6-25.2c-3.1-8.6-8.5-16.2-15.5-22.1c-3.7-3-7.7-5.5-12-7.5c-4.4-2-9.1-3.3-13.9-4l-1.8-0.3h-1.9
		c-1.2,0-2.4-0.2-3.7,0c-5,0.1-10,0.8-14.9,2.3l-3.6,1.3c-1.2,0.5-2.4,1-3.5,1.6c-9.5,4.6-17.5,11.9-22.7,21.1
		c-2.6,4.7-4.5,9.8-5.6,15.1c-1.1,5.4-2.2,10.8-3.4,16.3c-2.3,11-4.6,22.1-7,33.4l-14.5,69.6v0.5h-0.5l-22-4.6h-0.5v-0.5
		c0.9-4.1,1.7-8.3,2.6-12.6c6.6-31.5,13-62.2,19.2-91.8c1.6-7.4,2.8-14.8,5-22c2.3-7.1,5.5-13.8,9.6-20c8.1-12,19.6-21.3,32.9-26.9
		c12.7-5.4,26.5-7.1,40.1-5.1c1.6,0.3,3.3,0.5,4.9,0.8l5.6,1.4l3,0.9l4.5,1.7l2.1,0.9c5.4,2.5,10.6,5.6,15.3,9.3
		c2.4,1.9,4.8,3.9,7,6.1c0.9,1,1.7,1.9,2.5,3c1,1.2,2.1,2.2,2.9,3.5c1.8,2.4,3.5,4.8,5.1,7.4l2.2,3.8c0.7,1.3,1.2,2.8,1.9,4
		c4.7,10.1,7,21.1,6.8,32.3c0,10.6-3,20.4-4.8,29.7s-3.8,18.1-5.6,26.3c-3.5,16.4-6.5,30.6-8.9,42.1c-2.4,11.4-4.3,20.5-5.6,26.5
		l-1.5,6.9C576.9,286.6,576.7,287.4,576.7,287.4z"/>
	<path class="st2" d="M420.9,173.6l196.4,40.9c5.6,1.2,9.2,6.7,8.1,12.3l-31,148.9c-1.1,5.1-6.1,8.4-11.2,7.3l0,0l-197.4-41l0,0
		L420.9,173.6L420.9,173.6L420.9,173.6z"/>
	<g class="st3">
		<path d="M421,173.8l195.4,40.7c6.2,1.3,10.2,7.4,8.9,13.6L594.7,375c-1.2,5.7-6.8,9.3-12.4,8.2l0,0L386,342.3l0,0
			C385.9,342.1,421,173.8,421,173.8z"/>
	</g>
	<path class="st2" d="M422.6,174L592,209.3c6.1,1.3,10,7.3,8.8,13.4l-30,143.8c-1.6,7.5-8.9,12.4-16.5,10.8l-166.4-34.7
		c-6.3-1.3-10.4-7.5-9.1-13.8l0,0l30.4-146C410.6,176.7,416.5,172.8,422.6,174z"/>
	<g class="st3">
		<path d="M519.5,266.6c2.7-13-5.6-25.7-18.6-28.4c-0.2,0-0.5-0.1-0.7-0.1c-12.7-2.1-24.8,6-27.7,18.6c-2.3,10.5,2.8,21.3,12.4,26.3
			l-22.1,29.3l40.4,9.2l-5.6-35.8C508.3,284.9,517.2,277.1,519.5,266.6z"/>
	</g>
	<path class="st0" d="M571.4,364.3c-0.3,0,5.7-29.4,13.4-65.5s14.2-65.4,14.4-65.3c0.3,0.1-5.7,29.4-13.4,65.6
		C578.2,335.2,571.7,364.3,571.4,364.3z"/>
	<path class="st4" d="M557.8,207.5c0,0.3-26-4.5-57.9-10.7s-57.7-11.5-57.7-11.7c0.1-0.3,26,4.5,57.9,10.7S557.8,207.2,557.8,207.5z
		"/>
	<path class="st4" d="M469.1,269.3c0,0-0.3-0.6-0.7-1.7c-0.5-1.6-0.8-3.2-0.9-4.8c-0.4-5.5,0.8-10.9,3.5-15.7
		c2.8-4.7,6.9-8.5,11.8-10.9c1.5-0.7,3-1.3,4.6-1.7c0.6-0.2,1.2-0.3,1.8-0.3c0,0.2-2.5,0.7-6.1,2.6c-9.5,5-15.3,15.1-14.8,25.9
		C468.4,266.8,469.2,269.2,469.1,269.3z"/>
	<path class="st4" d="M476,282.3c-0.2,0.2-1.5-0.6-2.8-1.9s-2.3-2.5-2.1-2.8s1.5,0.7,2.8,1.9C475.2,280.8,476.2,282.3,476,282.3z"/>
	<path class="st4" d="M535.4,84c0,0-1.4,0-4.1-0.3c-3.7-0.2-7.4-0.2-11.1,0.2c-24.9,2.2-46.2,18.6-54.8,42.1c-1.3,3.5-2.3,7-3,10.6
		c-0.5,2.6-0.7,4-0.8,4c0-0.4,0-0.7,0-1.1c0-0.7,0-1.7,0.4-3c0.6-3.7,1.5-7.3,2.8-10.8c8.4-24,30.2-40.7,55.5-42.6
		c3.7-0.3,7.4-0.2,11.1,0.2c1.3,0,2.3,0.3,3,0.4C534.7,83.8,535.1,83.8,535.4,84z"/>
	<path class="st4" d="M456.9,158.6c-0.1-2.1,0.2-4.2,0.8-6.2c0.3-2.1,0.9-4.1,1.8-6c0.1,2.1-0.2,4.2-0.8,6.2
		C458.5,154.6,457.9,156.7,456.9,158.6z"/>
</g>
<g id="freepik--Characters--inject-21">
	<path class="st2" d="M18,383.6L0,408l30.3,22.5c2-3-9.4-20.5-9.4-20.5l12.2-15.2L18,383.6z"/>
	<path class="st4" d="M12.6,401.8c-0.7-0.3-1.6,0.1-1.9,0.8c-0.3,0.7,0,1.6,0.8,1.9s1.6-0.1,2-0.8c0.2-0.8-0.2-1.6-1-1.9"/>
	<path class="st0" d="M0,408.1l1.9-2.6l28.3,22.8c0,0,0.9,1.6,0,2.4L0,408.1z"/>
	<path class="st0" d="M21.6,410.3c-0.1,0.1-0.9-0.3-2-0.4s-1.9,0.3-2,0.1s0.8-0.9,2.1-0.8S21.7,410.1,21.6,410.3z"/>
	<path class="st0" d="M23.8,413.9c-0.1,0.2-0.9-0.1-1.9,0.2s-1.6,0.8-1.8,0.7s0.4-1,1.6-1.3C22.9,413.2,23.8,413.8,23.8,413.9z"/>
	<path class="st0" d="M22.7,419.1c-0.2-0.1,0.2-1,1.2-1.5s1.9-0.3,1.9-0.2s-0.8,0.3-1.6,0.7S22.9,419.2,22.7,419.1z"/>
	<path class="st0" d="M23.9,406.5c-0.2,0.1-0.7-0.6-1.6-1.2s-1.7-0.8-1.7-1s1-0.2,2.1,0.4S24.1,406.4,23.9,406.5z"/>
	<path class="st0" d="M91.2,281.5c0.5,3.1,1.4,29.1,1.9,42.8s-0.8,20.5-2.4,23.6S30,394.5,25.4,405l-15-12.1c0,0,22-39.5,31.4-46.7
		s27.4-13.8,27.4-13.8l-5.1-75.2l24.6-1.3L91.2,281.5z"/>
	<path class="st2" d="M36.2,407.7L35.9,438l37.7,0.5c-0.2-3.6-19.6-11.1-19.6-11.1l1-19.4L36.2,407.7z"/>
	<path class="st4" d="M42.4,425.7c-0.8,0.2-1.2,1-1.1,1.7c0.2,0.8,0.9,1.2,1.7,1.1c0.8-0.2,1.3-1,1.1-1.9c-0.3-0.8-1.1-1.2-1.9-0.9"
		/>
	<path class="st0" d="M35.9,438.1v-3.2l36.2,1.9c0,0,1.7,0.8,1.4,2L35.9,438.1z"/>
	<path class="st0" d="M54.6,427.3c0,0.2-0.9,0.3-1.8,0.8s-1.4,1.3-1.6,1.3s0.1-1.1,1.2-1.8S54.7,427.1,54.6,427.3z"/>
	<path class="st0" d="M58.6,429c0,0.2-0.8,0.5-1.4,1.2s-0.8,1.6-1,1.6s-0.3-1,0.5-2S58.6,428.8,58.6,429z"/>
	<path class="st0" d="M60.8,433.7c-0.2,0-0.4-0.9,0.1-1.9s1.4-1.4,1.4-1.2s-0.5,0.7-0.8,1.5S60.9,433.7,60.8,433.7z"/>
	<path class="st0" d="M54.4,422.8c-0.1,0.2-0.9-0.1-2,0s-1.9,0.4-2,0.2s0.7-0.8,1.9-0.9S54.4,422.7,54.4,422.8z"/>
	<path class="st0" d="M93.9,252.8c0,1.8,2.9,46.6-11.8,79c0,0-5.1,10.1-6,14.6s-19.9,77.9-19.9,77.9l-21.9-0.8c0,0-3.5-36.8,0-58.1
		s10-18.8,10-32.6S41,290.5,41,290.5s-4.8-7.8-6.4-22.9c-1.3-12.3,4.4-25.4,4.4-25.4l5.7-10.1l48.3-2.5L93.9,252.8z"/>
	<path class="st2" d="M93.9,252.8c0,0,0-0.5,0-1.5s-0.1-2.5-0.1-4.5c-0.1-4-0.2-9.8-0.4-17.3v-0.1h-0.1L45,231.9h-0.1l-0.1,0.1
		c-1.8,3.1-3.7,6.6-5.7,10.1l0,0c-1.5,3.6-2.6,7.3-3.5,11.1c-0.9,4-1.3,8.1-1.2,12.2c0.3,4.3,1,8.5,2,12.7c1,4.4,2.5,8.6,4.6,12.6
		v-0.1c0.8,7.5,1.6,15.2,2.2,23.1c0.3,4,0.6,8,0.8,12.1c0.1,2,0.2,4.1,0.2,6.2c0,1,0,2.1-0.1,3.1s-0.2,2.1-0.4,3.1
		c-0.4,2.1-1.1,4-2.2,5.9c-1,1.9-2,3.7-3,5.7c-1.8,4-3.1,8.1-3.9,12.4c-1.7,8.6-2.1,17.5-2.2,26.5c0,11.9,0.6,23.6,1.5,34.9v0.2h0.2
		l21.9,0.8h0.2l0.1-0.2c6.3-24.6,12.3-47.6,17.5-68.3l1.9-7.6c0.3-1.3,0.5-2.5,0.9-3.7s0.8-2.4,1.3-3.5c0.9-2.3,2-4.6,3-6.8l0.8-1.6
		c0.3-0.5,0.5-1.1,0.7-1.6c0.4-1.1,0.9-2.2,1.3-3.3c3.1-8.1,5.4-16.4,6.9-24.9c2.1-12.1,3.2-24.4,3.3-36.7
		C94.2,257.5,93.9,252.8,93.9,252.8s0,0.3,0,0.8s0,1.4,0.1,2.6c0.1,2.2,0.1,5.6,0,9.9c-0.1,12.3-1.2,24.6-3.3,36.7
		c-1.5,8.5-3.9,16.8-7,24.8l-1.3,3.3c-0.2,0.6-0.5,1.1-0.7,1.6s-0.5,1.1-0.8,1.6c-1,2.2-2.1,4.4-3,6.8c-0.5,1.2-0.9,2.4-1.3,3.6
		s-0.6,2.5-0.9,3.8c-0.6,2.5-1.3,5.1-1.9,7.6c-5.3,20.7-11.2,43.7-17.6,68.3l0.3-0.2l-21.9-0.8l0.3,0.2c-1-11.3-1.6-22.9-1.5-34.8
		c0.1-9,0.4-17.9,2.2-26.4c0.8-4.2,2.1-8.4,3.9-12.3c0.9-1.9,2-3.8,3-5.7c1-1.9,1.7-3.9,2.1-6c0.2-1,0.3-2.1,0.4-3.1
		c0-1,0.1-2.1,0.1-3.1c0-2.1-0.1-4.1-0.2-6.2c-0.2-4.1-0.5-8.1-0.8-12.1c-0.7-8-1.4-15.7-2.3-23.2l0,0v-0.1
		c-2.1-3.9-3.6-8.1-4.7-12.4c-1-4.1-1.7-8.4-2-12.6c-0.1-4.1,0.3-8.1,1.2-12.1c0.8-3.8,1.9-7.4,3.4-11l0,0l5.7-10.1l-0.2,0.1
		l48.3-2.6l-0.1-0.1c0.2,7.5,0.4,13.3,0.5,17.3c0.1,2,0.1,3.5,0.2,4.5S93.9,252.8,93.9,252.8z"/>
	<path class="st2" d="M78.2,161.1c0,0-13-2.3-11.8,14.4c0.8,10,3.7,27.2,5.3,38.1c0.6,3.8,1.8,10.6,6.8,14.6l35.9,24.8l11.3-13.5
		L93.6,209l-5-30.2L78.2,161.1z"/>
	<path class="st0" d="M79.7,100.8c4.2,3.4,6.5,8.6,6.1,13.9c-0.2,2.6-0.9,5.5,0.8,7.4c1.7,1.9,4.9,1.9,6.4,3.9
		c1.9,2.3,0.3,5.8,1,8.7c0.7,2.8,3.4,4.7,6.3,4.4c-3.3,2.7-7.2,4.4-11.4,5l-3.3-4.1c1.2,1.4,0.9,3.7-0.3,5.2
		c-1.3,1.4-2.9,2.3-4.7,2.8c-8.7,2.7-18.2,1.1-25.7-4.2"/>
	<path class="st0" d="M31.7,123.3c0.6-2,1.7-3.8,2.2-5.8c0.9-4.3-1.2-9.2,0.9-13.1c1.5-2.8,4.7-4.1,7.7-5.1s6.2-1.7,8.5-3.9
		c1.6-1.6,2.6-3.9,4.2-5.5c2.3-2.3,5.8-3.1,9.1-3.3c3.4-0.3,6.8,0.2,9.9,1.6s5.4,4.3,6.1,7.6c0.3,1.6,0.1,3.3,0.6,4.9
		c0.6,1.7,1.9,3.1,2.8,4.7c1.7,3.6,0.8,7.8-2.2,10.4l-23.2,29.9c-4.9,1.8-16.7-0.4-20.4-4S30.1,128.3,31.7,123.3z"/>
	<path class="st5" d="M80.8,112.1c-1-6.8-6.1-14.8-12.9-13.6l-20.8,7c-2,0.4-0.6,3.7-0.4,5.8l4.5,47c0,0-2.8,2-3.8,1.6
		c-0.2-0.1-0.3,0-0.4,0.2c0,0.1,0,0.2,0,0.3c2.6,3.6,14.4,19.5,26.6,14.6c2.7-1.1-0.3-9.7,0-12.8l-0.4-8.1c-0.3-4.1-0.4-5.8-0.4-5.8
		s8.6-2.1,9.6-13.6C82.9,128.9,81.9,119.6,80.8,112.1z"/>
	<path class="st0" d="M79.4,122.5c0.1,0.8-0.5,1.5-1.3,1.6s-1.5-0.4-1.6-1.2l0,0c-0.1-0.8,0.5-1.5,1.3-1.6
		C78.5,121.2,79.2,121.7,79.4,122.5C79.3,122.5,79.3,122.5,79.4,122.5z"/>
	<path class="st0" d="M65.2,123.4c0.1,0.8-0.5,1.5-1.3,1.6s-1.5-0.4-1.6-1.2l0,0c-0.1-0.8,0.5-1.5,1.3-1.6
		C64.3,122.1,65,122.6,65.2,123.4C65.1,123.4,65.1,123.4,65.2,123.4z"/>
	<path class="st0" d="M79.9,117.7c-0.2,0.3-1.5-0.6-3.2-0.3s-2.8,1.4-3,1.2s0-0.6,0.5-1.1c1.3-1.4,3.4-1.7,5-0.7
		C79.7,117.2,79.9,117.6,79.9,117.7z"/>
	<path class="st0" d="M64.6,119c-0.2,0.2-1.5-0.7-3.4-0.6s-3.1,1.1-3.3,0.9s0.1-0.5,0.7-1c0.7-0.6,1.7-1,2.7-1s1.9,0.2,2.7,0.8
		C64.5,118.5,64.7,118.9,64.6,119z"/>
	<path class="st0" d="M70.3,129.8c0.8-0.3,1.7-0.6,2.5-0.7c0.4-0.1,0.8-0.2,0.8-0.5c0-0.4-0.1-0.8-0.4-1.2c-0.4-0.9-0.9-1.9-1.4-3
		c-2-4.2-3.4-7.7-3.3-7.8s1.9,3.3,3.9,7.5c0.5,1.1,0.9,2,1.4,3c0.3,0.5,0.4,1,0.3,1.6c-0.1,0.3-0.3,0.5-0.6,0.6
		c-0.2,0.1-0.4,0.1-0.7,0.1C72.1,129.7,71.2,129.8,70.3,129.8z"/>
	<path class="st6" d="M72.8,148.3c-5.4,0.5-10.7-0.5-15.6-2.9c0,0,4.4,7.7,15.8,5.8L72.8,148.3z"/>
	<path class="st6" d="M65.5,134.3c0.2-0.4,0.5-0.7,0.8-1c0.4-0.2,0.9-0.2,1.4-0.1c0.7,0.1,1.3,0.4,1.8,0.9s0.7,1.2,0.4,1.9l0,0
		c-0.2,0.7-1.2,1-1.8,1.1c-0.7,0.1-1.4,0-2-0.4c-0.5-0.2-0.9-0.7-1-1.3C65.1,135,65.3,134.7,65.5,134.3z"/>
	<path class="st0" d="M65.9,132.1c0.2,0,0.4,1.7,1.9,2.8s3.3,0.8,3.4,1s-0.4,0.4-1.1,0.4c-1,0.1-2-0.2-2.8-0.8
		c-0.8-0.5-1.3-1.4-1.5-2.3C65.6,132.6,65.7,132.1,65.9,132.1z"/>
	<path class="st0" d="M64.5,112.8c-0.1,0.4-1.7,0.4-3.5,0.7s-3.3,1-3.6,0.6c-0.1-0.2,0.1-0.6,0.7-1.1c1.5-1.2,3.5-1.5,5.4-1
		C64.1,112.3,64.5,112.6,64.5,112.8z"/>
	<path class="st0" d="M78.9,112c-0.3,0.4-1.6,0.1-3,0.2s-2.7,0.4-3.1,0.1c-0.1-0.2,0-0.6,0.6-0.9c0.7-0.5,1.6-0.7,2.4-0.8
		c0.9-0.1,1.7,0.1,2.5,0.5C78.8,111.4,79,111.8,78.9,112z"/>
	<path class="st0" d="M42.5,107.1c1-1.6,2.9-2.4,4.7-3.1c7.8-3,15.9-5.1,24.1-6.2c1,1.7,0.1,4-1.5,5.2s-3.6,1.7-5.4,2.4
		s-3.8,1.8-4.5,3.6s-0.1,4.2-0.8,6.2c-1.2,3.4-6,4.5-7.2,7.9c-0.9,2.6,0.6,5.3,1,8.1c0.7,5.4-3,10.3-8.4,11.1
		c-0.4,0.1-0.8,0.1-1.3,0.1c-0.6-9.8-1.1-19.6-1.7-29.4C41.4,111,41.4,108.8,42.5,107.1z"/>
	<path class="st0" d="M22.8,131.9c1.6-1.4,3.5-2.6,4.1-4.6c0.9-2.9-1.4-6.3,0.1-8.9c1.4-2.4,5.4-2.3,6.6-4.7c1-1.9-0.2-3.6,0.2-5.3
		s2.8-3.1,4.5-2.9l13.3,19.3c1.2,6.5,2.5,10,1.1,13.8c-0.9,2-1.6,4.1-2.1,6.3c-0.3,2.2,0.3,4.7,2.1,6c-8,0.6-15.5-3.6-22.4-7.6
		L23,139c-0.8-0.4-1.5-1-2-1.7C19.9,135.5,21.2,133.2,22.8,131.9z"/>
	<path class="st2" d="M30.1,141.3c0.3,0.1,0.6,0.1,0.9,0.2c0.8,0.1,1.7,0,2.5-0.2c1.3-0.3,2.5-1,3.5-1.9c1.3-1.2,2.1-2.9,2.3-4.7
		c0.1-1,0-2.1-0.3-3.1c-0.4-1.1-0.9-2.1-1.5-3c-0.7-0.9-1.2-2-1.5-3.1c-0.4-1.1-0.2-2.4,0.4-3.4c0.7-1,2.1-1.2,3.3-1.7
		c0.7-0.2,1.3-0.7,1.7-1.3c0.4-0.6,0.6-1.4,0.6-2.1c-0.2-1.4-0.5-2.8-0.9-4.2c-0.2-0.7-0.2-1.3,0-2s0.6-1.2,1.2-1.6
		c1.2-0.7,2.6-1.1,4-1.1c1.5,0,2.9-0.5,4.1-1.2s2.2-1.8,2.9-3.1c0.5-1.2,0.9-2.5,1-3.8c0.1-1.2,0.4-2.4,0.8-3.6
		c0.4-1.1,1.1-2,1.9-2.8c1.5-1.4,3.5-2.3,5.5-2.5c1.7-0.1,3.5,0.2,5,1c1.2,0.6,2.2,1.4,3.1,2.3c0.7,0.8,1.4,1.8,1.9,2.7
		c0,0,0-0.1-0.1-0.2c-0.1-0.2-0.2-0.4-0.3-0.6c-0.4-0.7-0.8-1.4-1.4-2c-0.9-1-1.9-1.8-3.1-2.4c-1.6-0.9-3.3-1.2-5.1-1.1
		c-2.2,0.2-4.2,1.1-5.8,2.5c-0.9,0.8-1.6,1.9-2,3c-0.4,1.2-0.7,2.4-0.8,3.7c-0.1,1.3-0.5,2.5-1,3.7c-0.6,1.2-1.5,2.2-2.7,2.9
		s-2.5,1.1-3.9,1.1c-1.5,0-3,0.4-4.3,1.2c-0.6,0.4-1.1,1.1-1.3,1.9c-0.2,0.7-0.2,1.5,0,2.2c0.4,1.3,0.7,2.7,0.9,4.1
		c0,0.6-0.1,1.3-0.5,1.8s-0.9,0.9-1.5,1.1c-0.6,0.2-1.2,0.4-1.8,0.7c-0.6,0.2-1.2,0.7-1.7,1.2c-0.7,1.1-0.9,2.5-0.5,3.8
		c0.4,1.1,0.9,2.2,1.6,3.2c0.6,0.9,1.1,1.8,1.5,2.9c0.3,0.9,0.4,1.9,0.3,2.9c-0.2,1.7-0.9,3.3-2.1,4.5c-0.9,0.9-2.1,1.6-3.3,1.9
		C32.3,141.4,31.2,141.5,30.1,141.3z"/>
	<path class="st0" d="M19.5,127.5c-0.1,0.2-0.2,0.4-0.3,0.6c-0.1,0.7,0,1.4,0.3,2c0.2,0.4,0.6,0.8,1,1.1c0.5,0.3,1.1,0.5,1.7,0.5
		c1.5,0,2.8-0.9,3.5-2.2c0.4-0.8,0.6-1.6,0.6-2.4c0-0.9-0.2-1.8-0.6-2.6c-0.6-1.7-1.8-3.4-1.8-5.4c-0.1-1,0.3-2,0.9-2.8
		c0.8-0.7,1.9-1,2.9-0.9c1.2,0.1,2.3,0,3.5-0.4c0.6-0.2,1.1-0.7,1.4-1.2s0.5-1.1,0.6-1.8c0.1-1.2,0-2.4-0.3-3.6
		c-0.2-1.1-0.1-2.2,0.2-3.3c0.6-2,1.9-3.8,3.7-4.9c1.7-0.9,3.6-1.3,5.6-1.3c1.7,0,3.4-0.3,5.1-0.8c1.3-0.5,2.5-1.2,3.6-2.2
		c0.8-0.7,1.5-1.6,2-2.5c0.5-0.8,0.8-1.6,0.9-2.5c-0.3,0.8-0.7,1.7-1.1,2.4c-1.3,2.1-3.2,3.7-5.5,4.6c-1.6,0.5-3.3,0.7-5,0.7
		c-2-0.1-4,0.4-5.7,1.3c-1.9,1.1-3.3,2.9-3.9,5.1c-0.3,1.1-0.4,2.3-0.2,3.5c0.2,1.1,0.3,2.3,0.3,3.4c0,1.1-0.7,2.1-1.7,2.6
		c-1.1,0.3-2.2,0.4-3.3,0.3c-1.2-0.1-2.3,0.3-3.2,1c-0.7,0.8-1.1,2-1,3.1c0,1,0.3,2.1,0.7,3c0.4,0.9,0.8,1.7,1.2,2.6
		c0.3,0.8,0.5,1.6,0.6,2.5c0,0.8-0.2,1.6-0.5,2.3c-0.6,1.2-1.8,2.1-3.2,2.1c-0.6,0-1.1-0.1-1.6-0.4c-0.4-0.2-0.8-0.6-1-1
		c-0.4-0.6-0.5-1.2-0.4-1.9C19.4,127.8,19.5,127.5,19.5,127.5z"/>
	<path class="st0" d="M103.7,132.3c0.2,0.7,0.2,1.4,0,2.1c-0.3,0.8-0.9,1.4-1.7,1.7c-1,0.3-2.2,0-2.9-0.8c-0.4-0.5-0.7-1.1-0.7-1.7
		c0-0.7,0.1-1.4,0.3-2c0.4-1.4,1.3-2.8,1.2-4.6s-1-3.5-2.4-4.6c-0.7-0.6-1.6-1-2.5-1.3s-1.9-0.4-2.8-0.4c-0.9,0-1.9-0.1-2.8-0.3
		c-0.9-0.2-1.6-0.6-2.1-1.3s-0.7-1.5-0.8-2.4c0-0.8,0-1.7,0.2-2.5c0.4-1.5,0.7-3.1,0.7-4.7c-0.1-1.4-0.6-2.8-1.4-3.9
		c-0.7-0.9-1.6-1.6-2.6-2.2c-0.7-0.4-1.4-0.9-2.1-1.4c-0.5-0.5-1-1-1.3-1.7c0,0,0,0,0,0.1s0.1,0.3,0.2,0.4c0.2,0.5,0.6,0.9,1,1.3
		c0.6,0.6,1.3,1.1,2.1,1.5c1,0.6,1.8,1.3,2.5,2.2c0.8,1.1,1.2,2.4,1.3,3.7c-0.1,1.5-0.3,3.1-0.8,4.6c-0.2,0.8-0.3,1.7-0.2,2.6
		c0,0.9,0.3,1.8,0.9,2.6c0.6,0.8,1.4,1.3,2.4,1.5c0.9,0.2,1.9,0.3,2.9,0.3c0.9,0,1.8,0.1,2.7,0.4c0.8,0.3,1.6,0.7,2.3,1.2
		c1.3,1,2.2,2.6,2.3,4.3c0.1,1.6-0.7,3-1.1,4.4c-0.2,0.7-0.3,1.4-0.3,2.2c0,0.7,0.3,1.4,0.8,1.9c0.8,0.9,2.1,1.2,3.3,0.8
		c0.8-0.3,1.5-1,1.7-1.9c0.2-0.5,0.2-1.1,0.1-1.6C103.9,132.7,103.8,132.5,103.7,132.3z"/>
	<path class="st2" d="M94.1,210.6v-11.1c1.2-6.2,0.6-13.6-2.2-19.2c-2.1-3.7-4.4-7.2-6.9-10.6l-11-14.3c-6.1,4.4-15.6,1.2-23.7-1.7
		c0,0-8,4.4-11.8,8.6c-3.9,4.4,9.5,59.4,9.5,59.4c-6.1,12.2-13.9,23-15.1,34.1l63.6,2.5l-2.7-29.2L94.1,210.6z"/>
	<path class="st0" d="M93.2,229.5c-0.1-0.4-0.1-0.8-0.1-1.2c0-0.9,0-2,0-3.4c0.1-3,0.1-6.9,0.2-11.2s0.2-8.3,0.3-11.2
		c0.1-1.4,0.1-2.6,0.2-3.4c0-0.4,0.1-0.8,0.2-1.2c0,0.4,0,0.8,0,1.2c0,0.9,0,2,0,3.4c-0.1,3-0.1,6.9-0.2,11.2s-0.2,8.3-0.3,11.2
		c-0.1,1.4-0.1,2.6-0.2,3.4C93.4,228.7,93.3,229.1,93.2,229.5z"/>
	<path class="st5" d="M122.3,239.6c0,0,6.2,0.3,10,2.7c3.8,2.4,10,6.1,12.6,10.8c1.2,2.1-2.2,2.6-3.8,1.4s-4.2-3.6-5.4-3.9l-1.2-0.3
		c1.1,2.6,2.4,5.1,3.8,7.6c1.3,2,2.4,5.3-1.5,5.5c0,0-2.6,3.4-5.2,0.9c0,0-2.1,3.1-5.4-1.2c0,0-1.9,2.5-2.7,1.5s-3.4-2.4-4.2-5.5
		c-1.2-3.6-2.5-7.1-4-10.5L122.3,239.6z"/>
	<path class="st5" d="M261.1,153.7c0.7,0,29.1-3,29.1-3s2.4-11.5,2.3-14.5s-2.1-22.9-2.1-22.9l10.6-5c0,0,14.2,47.9,11.1,51.9
		s-8.9,7.6-9.4,7.6s-27.5,12-46.3,5.8S261.1,153.7,261.1,153.7z"/>
	<path class="st2" d="M236.2,179.5c4.2,4.1,11.4,7.6,23.4,4.6c23.8-5.9,41.6-11,48.6-14.8s4.3-20.8,4.9-21.6
		c1.8-2.3-0.2-7.3-2.7-8.1c-7.3-2.2-19.9-1.3-20.6-0.7c-3.7,3.9-0.3,8.7-0.3,8.7l-31.3,4.1c-3.9-0.2-7.7,0.1-11.5,0.7"/>
	<path class="st0" d="M246.7,152.5l0.8-0.2c0.5-0.1,1.2-0.2,2.2-0.3c2.8-0.4,5.7-0.5,8.5-0.4l0,0l31.3-4.2l-0.1,0.4
		c-1-1.5-1.5-3.3-1.4-5.1c0.1-0.9,0.4-1.9,0.9-2.7c0.3-0.4,0.5-0.8,0.9-1.1c0.1-0.1,0.3-0.2,0.4-0.2l0.4-0.1
		c0.2-0.1,0.5-0.1,0.7-0.1c3.9-0.4,7.8-0.5,11.7-0.2c2,0.1,4.1,0.4,6.1,0.8c0.5,0.1,1,0.3,1.5,0.4c0.5,0.2,1,0.5,1.4,0.8
		c0.8,0.8,1.4,1.7,1.8,2.7s0.5,2.1,0.4,3.2c-0.1,0.6-0.3,1.1-0.6,1.6c-0.1,0.1-0.1,0.4-0.1,0.6v0.8c0.1,2.1,0.2,4.3,0.1,6.5
		c0,3.1-0.5,6.2-1.5,9.2c-0.5,1.5-1.4,2.8-2.6,3.8c-0.6,0.5-1.3,0.9-2,1.2c-0.7,0.4-1.4,0.6-2,0.9c-2.7,1.2-5.5,2.1-8.2,3
		s-5.4,1.7-8,2.5c-10.5,3-20,5.4-27.9,7.4c-1.9,0.5-3.8,0.9-5.8,1.2c-1.7,0.2-3.5,0.3-5.2,0.3c-2.8-0.1-5.6-0.7-8.2-1.8
		c-1.6-0.7-3.1-1.7-4.5-2.8c-0.5-0.4-0.9-0.8-1.3-1.3c0,0,0.5,0.4,1.4,1.2c1.4,1.1,2.9,2,4.5,2.7c2.6,1.1,5.3,1.6,8.1,1.7
		c1.7,0,3.5-0.1,5.2-0.3c1.9-0.3,3.8-0.7,5.7-1.2c8-2,17.5-4.5,27.9-7.5c2.6-0.8,5.3-1.6,8-2.5s5.4-1.9,8.1-3c0.7-0.3,1.4-0.6,2-0.9
		c0.7-0.3,1.3-0.7,1.9-1.1c1.1-1,2-2.2,2.5-3.6c1-2.9,1.5-6,1.5-9.1c0.1-2.2,0-4.4-0.1-6.5v-0.8c0-0.1,0-0.3,0-0.4
		c0-0.1,0-0.2,0-0.2c0-0.1,0-0.1,0.1-0.2v-0.1c0.3-0.4,0.5-0.9,0.5-1.4c0.1-1,0-2-0.4-3c-0.3-1-0.9-1.8-1.6-2.5
		c-0.4-0.3-0.8-0.6-1.2-0.7c-0.5-0.1-1-0.3-1.5-0.4c-2-0.4-4-0.7-6-0.8c-3.9-0.3-7.7-0.2-11.6,0.2c-0.2,0-0.5,0.1-0.7,0.1l-0.3,0.1
		c-0.1,0-0.1,0.1-0.2,0.1c-0.3,0.3-0.6,0.7-0.8,1.1c-0.5,0.7-0.8,1.6-0.8,2.4c-0.1,1.7,0.4,3.4,1.3,4.9l0.2,0.3h-0.5l-31.3,4l0,0
		c-2.8-0.1-5.7-0.1-8.5,0.2c-1,0.1-1.7,0.2-2.2,0.3S246.7,152.5,246.7,152.5z"/>
	<path class="st7" d="M161.9,185.1l-12.8-22.9l0,0L390.5,27.8c5.8-3.2,13.1-1.1,16.3,4.6l1.1,2c3.2,5.8,1.1,13.1-4.6,16.3
		L161.9,185.1L161.9,185.1L161.9,185.1z"/>
	<path class="st7" d="M364.3,63.9l-29.6-53.1c-0.6-1.1-0.2-2.4,0.9-3l13.6-7.5c1.1-0.6,2.4-0.2,3,0.9l29.6,53.1l0,0
		C381.8,54.1,364.3,63.9,364.3,63.9z"/>
	<path class="st7" d="M327.7,77.8l-21.5-38.7c-0.9-1.6-0.3-3.5,1.3-4.4l11.8-6.6c1.6-0.9,3.5-0.3,4.4,1.3l21.5,38.7
		c0.9,1.6,0.3,3.5-1.3,4.4l-11.8,6.6C330.6,80,328.6,79.4,327.7,77.8z"/>

		<rect x="329.9" y="27.6" transform="matrix(0.8738 -0.4863 0.4863 0.8738 23.5221 173.2034)" class="st7" width="31.1" height="27.4"/>
	<path class="st0" d="M387,29.9c0.1,0.1-47.3,26.6-105.8,59.2s-106,58.9-106,58.7s47.3-26.6,105.8-59.2S386.9,29.7,387,29.9z"/>
	<path class="st7" d="M64.2,229.4c17.8,32,55.3,45,83.8,29.1s37.2-54.7,19.4-86.6c-17.8-31.9-55.3-45-83.8-29.1
		S46.4,197.4,64.2,229.4z M152,180.5c12.5,22.4,6.4,49.6-13.6,60.7s-46.3,2-58.7-20.4s-6.4-49.6,13.6-60.7S139.5,158.1,152,180.5z"
		/>
	<path class="st7" d="M203,163l-13.2-23.7c-1.8-3.1-0.6-7.1,2.5-8.9l1.1-0.6c3.1-1.8,7.1-0.6,8.9,2.5l13.2,23.7
		c1.8,3.1,0.6,7.1-2.5,8.9l-1.1,0.6C208.7,167.2,204.7,166.1,203,163z"/>
	<path class="st7" d="M228.2,148.9L215,125.2c-1.8-3.1-0.6-7.1,2.5-8.9l1.1-0.6c3.1-1.8,7.1-0.6,8.9,2.5l13.2,23.7
		c1.8,3.1,0.6,7.1-2.5,8.9l-1.1,0.6C234,153.2,230,152,228.2,148.9z"/>
	<path class="st0" d="M202,132c0.1-0.1,3.2,5.3,6.8,12s6.5,12.2,6.4,12.2s-3.2-5.3-6.8-12S201.8,132,202,132z"/>
	<path class="st0" d="M190.4,140.2c0.1-0.1,3.1,5.1,6.7,11.4c3.6,6.3,6.3,11.6,6.2,11.7s-3.1-5.1-6.6-11.4S190.2,140.3,190.4,140.2z
		"/>
	<path class="st0" d="M227.4,118.1c0.1-0.1,3.2,5.3,7,11.9s6.6,12.1,6.5,12.2s-3.2-5.3-6.9-11.9S227.3,118.1,227.4,118.1z"/>
	<path class="st0" d="M215.2,125.4c0.1-0.1,3.2,5.2,6.8,11.9s6.5,12,6.3,12.1s-3.2-5.2-6.8-11.9S215.1,125.5,215.2,125.4z"/>
	<path class="st0" d="M287.7,89.4c2.6,0.3,4.9-1.5,5.2-4.1c0.3-2.2-1.1-4.4-3.2-5c1.9-1.9,1.9-5.1-0.1-7c-1.1-1.1-2.7-1.6-4.2-1.3
		c-0.1-3.3-2.9-5.8-6.1-5.6c-1,0-1.9,0.3-2.7,0.8c-2.4-1.9-5.7-2-8.1-0.2c-2.6-0.5-5,1.2-5.5,3.7c-0.3,1.6,0.2,3.2,1.3,4.3"/>
	<path class="st5" d="M267.4,71.5h1c10.5,0,19.2,8,20,18.5c0.8,9.7,1.5,20.4,1.4,25.6c-0.2,10.8-10.9,12.4-10.9,12.4l0.9,12.9
		l-26.1-0.9l-2.2-46.9C250.5,82,256.2,72.1,267.4,71.5z"/>
	<path class="st6" d="M279,128c-5,0-9.9-1.5-14.1-4.2c0,0,3.5,8.1,14.2,7.2L279,128z"/>
	<path class="st0" d="M282.5,100.1c0,0.8-0.7,1.5-1.5,1.5c-0.8,0.1-1.5-0.6-1.6-1.4l0,0c0-0.8,0.7-1.5,1.5-1.6
		C281.7,98.7,282.5,99.3,282.5,100.1L282.5,100.1z"/>
	<path class="st0" d="M286.1,95.3c-0.2,0.2-1.4-0.7-3-0.7s-2.9,0.8-3,0.6s0.1-0.4,0.6-0.8c0.7-0.5,1.6-0.8,2.4-0.7
		c0.9,0,1.7,0.3,2.4,0.8C286,94.8,286.2,95.2,286.1,95.3z"/>
	<path class="st0" d="M267.6,99.4c0,0.8-0.7,1.5-1.5,1.6s-1.5-0.6-1.6-1.4l0,0c0-0.8,0.7-1.5,1.5-1.6
		C266.8,98,267.5,98.6,267.6,99.4L267.6,99.4z"/>
	<path class="st0" d="M269.8,95.5c-0.2,0.2-1.4-0.7-3-0.7s-2.9,0.8-3,0.6s0.1-0.4,0.6-0.8c0.7-0.5,1.6-0.8,2.4-0.7
		c0.9,0,1.7,0.3,2.4,0.8C269.7,95.1,269.9,95.5,269.8,95.5z"/>
	<path class="st0" d="M275.8,107.8c0.9-0.3,1.8-0.4,2.7-0.5c0.4,0,0.8-0.1,0.9-0.4c0-0.4-0.1-0.9-0.3-1.2l-1.2-3.2
		c-1.7-4.6-3-8.4-2.8-8.4s1.7,3.6,3.5,8.2c0.4,1.1,0.8,2.2,1.2,3.2c0.3,0.5,0.3,1.1,0.2,1.7c-0.1,0.3-0.4,0.5-0.7,0.6
		c-0.2,0.1-0.5,0.1-0.7,0.1C277.6,108,276.7,108,275.8,107.8z"/>
	<path class="st0" d="M271.3,89.2c-0.2,0.4-1.6,0-3.4-0.1s-3.2,0.2-3.4-0.2c-0.1-0.2,0.2-0.6,0.9-0.9c0.8-0.4,1.7-0.6,2.6-0.5
		c0.9,0,1.8,0.3,2.5,0.8C271.1,88.6,271.4,89,271.3,89.2z"/>
	<path class="st0" d="M286.2,88.5c-0.4,0.4-1.7,0-3.4,0s-3,0.2-3.4-0.2c-0.1-0.2,0.1-0.6,0.7-0.9c0.8-0.4,1.8-0.7,2.7-0.6
		c0.9,0,1.9,0.3,2.7,0.8C286.1,87.9,286.3,88.3,286.2,88.5z"/>
	<path class="st0" d="M287.4,85.1c0,0-2.8-6.8-6.1-8.3c-3.9-1.9-5.6,2.4-9.4,1.3s-7.5-2.9-11.3,0c-4.2,3.2-2.2,5.4-2.5,10.2
		c-1.1,19.4-4.7,24.8-5.6,15.7c-0.1-1-2.9-1.8-3.3-6c-0.5-5.5-0.7-12.1,0.5-16c1-3.3,2.9-5.5,6.3-8c5.3-3.9,12.6-4,17.5-3.5
		S287.9,76.7,287.4,85.1z"/>
	<path class="st5" d="M253.1,103.7c0-1.6-1.4-2.9-3-2.8H250c-2,0.2-4.2,1.3-4.1,5.5c0.2,7.4,7.6,5.6,7.6,5.4
		S253.3,106.7,253.1,103.7z"/>
	<path class="st6" d="M251.7,109c0,0-0.1,0.1-0.3,0.2c-0.3,0.1-0.6,0.2-1,0.1c-1-0.6-1.6-1.7-1.5-2.8c0-0.6,0.1-1.3,0.3-1.8
		c0.1-0.5,0.5-0.8,0.9-1c0.3-0.1,0.6,0,0.8,0.3c0.1,0.2,0.1,0.4,0.1,0.4s0.1-0.1,0.1-0.4c0-0.2-0.1-0.3-0.3-0.4
		c-0.2-0.2-0.5-0.2-0.7-0.2c-0.6,0.1-1.1,0.6-1.3,1.2c-0.3,0.6-0.4,1.4-0.4,2.1c0.1,1.5,0.9,2.9,2,3.1c0.4,0.1,0.8,0,1.2-0.2
		C251.7,109.2,251.8,109,251.7,109z"/>
	<path class="st0" d="M253.3,89.4c0.9,0.7,2,1.2,3.1,1.4c1.2,0.2,2.3-0.5,2.7-1.7c0.1-0.5,0-1.1,0.3-1.5s1.1-0.3,1.8-0.2
		c2.1,0.2,4.6-2.1,5.2-4.2c0.6,0.8,1.7,1.1,2.6,0.5c0.7-0.4,1.3-0.9,1.8-1.6c0.6-0.8,1.5-1.3,2.5-1.2c0.5,0.2,1.1,0.3,1.6,0.3
		c1-0.1,1.4-1.2,1.6-2.2s0.3-2.1,1.1-2.6c0.8-0.3,1.8-0.4,2.6-0.1c0.9,0.1,2-0.1,2.3-0.9c0.1-0.5,0-0.9-0.3-1.3
		c-1.2-1.8-3.6-2.6-5.6-1.8c-1-3.4-4.6-5.4-8-4.4c-1.7,0.5-3.1,1.6-3.9,3.1c-2.7-2.4-6.8-2.3-9.3,0.4c-0.5,0.6-0.9,1.2-1.2,2
		c-2.5-0.7-5.1,0.8-5.8,3.4c-0.3,1.2-0.2,2.5,0.4,3.5c-1.4,0.7-2.3,2-2.5,3.6c0,1.5,1.5,3,2.9,2.6c-0.7,1.3-0.1,2.9,1.2,3.5
		c1.2,0.6,2.7,0.2,3.4-0.9"/>
	<path class="st2" d="M277,74.5C277,74.5,277,74.5,277,74.5c0,0.2,0,0.3,0,0.5c-0.1,0.5-0.3,1-0.5,1.4c-0.4,0.7-1,1.3-1.6,1.7
		c-0.9,0.6-1.9,0.9-3,0.8l0.1-0.2c0.2,0.7,0.2,1.4-0.1,2c-0.3,0.7-0.8,1.3-1.3,1.8c-0.2,0.3-0.5,0.6-0.8,0.8
		c-1.1,0.7-2.6,0.6-3.5-0.4l0.3-0.1c-0.2,1.5-1.1,2.9-2.4,3.8c-0.7,0.5-1.5,0.8-2.4,0.8c-0.8,0-1.6-0.2-2.4-0.5l0.2-0.1
		c-0.4,0.9-1,1.7-1.8,2.3c-0.7,0.6-1.6,0.9-2.6,0.7c-1.6-0.3-2.8-1.6-3.1-3.2l0.2,0.1c-0.8,0.4-1.7,0.5-2.5,0.4
		c-0.6-0.1-1.2-0.4-1.8-0.8c-0.3-0.3-0.6-0.6-0.8-0.9c-0.1-0.1-0.1-0.3-0.2-0.4c0.3,0.5,0.6,0.9,1.1,1.2c0.5,0.4,1.1,0.6,1.7,0.7
		c0.8,0.2,1.7,0,2.4-0.4l0.1-0.1v0.2c0.3,1.5,1.5,2.6,2.9,2.9c0.8,0.1,1.7-0.1,2.3-0.7c0.7-0.6,1.3-1.3,1.6-2.2l0.1-0.1h0.1
		c0.7,0.3,1.5,0.5,2.3,0.5s1.6-0.2,2.2-0.7c1.2-0.8,2-2.1,2.2-3.6v-0.3l0.2,0.3c0.5,0.6,1.3,0.9,2.1,0.8c0.4,0,0.7-0.2,1-0.4
		c0.3-0.2,0.6-0.5,0.8-0.8c0.5-0.5,0.9-1.1,1.2-1.7c0.3-0.6,0.4-1.2,0.2-1.8l-0.1-0.2h0.2c1,0.1,2-0.2,2.9-0.8
		c0.7-0.4,1.2-1,1.6-1.7C276.6,75.8,276.9,75.2,277,74.5z"/>
	<path class="st0" d="M275.8,113.3c-0.1-0.3-1.9,0.2-3.5-1.1s-1.9-3.2-2.2-3.1s-0.2,0.5-0.1,1.3c0.2,1.1,0.9,2,1.7,2.6
		c0.8,0.6,1.9,0.9,2.9,0.8C275.4,113.8,275.8,113.4,275.8,113.3z"/>
	<path class="st2" d="M331.2,393.1l7.1,24.2c0,0,27,0.9,28.7,5.2L320.6,438L308,400.8L331.2,393.1z"/>
	<path class="st1" d="M323.3,420.1c-0.8,0.6-1.1,1.7-0.6,2.6c0.6,0.9,1.7,1.1,2.6,0.6c0.9-0.6,1.1-1.8,0.6-2.8
		c-0.7-0.8-1.9-1-2.8-0.3"/>
	<path class="st0" d="M364.4,420.8c0,0,2.4,0.2,2.6,1.8L320.6,438l-1.1-3.8L364.4,420.8"/>
	<path class="st4" d="M339,416.8c0.1,0.2-1,0.7-1.9,1.8s-1.1,2.2-1.4,2.2s-0.3-1.4,0.8-2.8S339,416.6,339,416.8z"/>
	<path class="st4" d="M344.5,417.2c0.1,0.2-0.7,0.9-1.2,2.1s-0.3,2.3-0.6,2.4s-0.8-1.2-0.2-2.7S344.5,417,344.5,417.2z"/>
	<path class="st4" d="M349.2,422.1c-0.2,0.1-0.9-0.9-0.7-2.3s1.1-2.3,1.2-2.1s-0.3,1-0.4,2.2S349.5,422,349.2,422.1z"/>
	<path class="st4" d="M336.8,411.5c0,0.2-1.2,0.3-2.4,0.8s-2.1,1.2-2.3,1.1s0.5-1.3,2-1.9S336.8,411.3,336.8,411.5z"/>
	<path class="st2" d="M222.9,393.3l-10.1,23.1c0,0,20.1,18,18.6,22.5l-45.5-18l14.3-36.6L222.9,393.3z"/>
	<path class="st1" d="M199.5,408.9c-1-0.1-1.9,0.6-2.1,1.6c-0.1,1,0.6,1.9,1.6,2.1c1.1,0.1,2-0.7,2.2-1.7c0-1-0.9-2.1-1.9-2"/>
	<path class="st0" d="M230.5,435.9c0,0,1.7,1.7,0.9,3l-45.5-18l1.6-3.6L230.5,435.9"/>
	<path class="st4" d="M213.6,416.5c-0.1,0.2-1.2-0.1-2.6,0.2c-1.4,0.3-2.3,1-2.5,0.8c-0.2-0.2,0.7-1.3,2.3-1.6
		S213.7,416.3,213.6,416.5z"/>
	<path class="st4" d="M217.6,420.4c0,0.2-1.1,0.2-2.3,0.9s-1.7,1.5-2,1.5s0.1-1.4,1.5-2.2C216.3,419.7,217.7,420.1,217.6,420.4z"/>
	<path class="st4" d="M218.1,427.1c-0.2,0-0.1-1.3,1-2.2s2.3-1.1,2.3-0.9s-0.9,0.6-1.7,1.5S218.3,427.2,218.1,427.1z"/>
	<path class="st4" d="M215.3,411c-0.2,0.2-1.1-0.5-2.4-1s-2.4-0.4-2.5-0.6s1.2-0.7,2.7-0.2C214.7,409.7,215.5,410.8,215.3,411z"/>
	<path class="st0" d="M239.9,266.4L224,331.1c0,0-28.8,48.4-33.6,72.6l26.3,10.3c0,0,19.1-46.6,24.7-55.2c2.5-3.8,5.4-7.4,8.7-10.7
		c2.1-2.1,3.6-4.7,4.4-7.6l12.1-46.1L239.9,266.4z"/>
	<path class="st0" d="M233.1,256.1c0,0,2.2,17.3,18.9,25l35.1,57.2c0,0,2.8,18.6,8,34.3s15.9,45.9,15.9,45.9l28.9-10.8l-18.4-62.9
		l-3-21.8l-28.7-73l-24.6-14.8L233.1,256.1z"/>
	<path class="st2" d="M233.1,256.1l0.5-0.4l1.6-1.1l6.2-4.1l23.7-15.6h0.1h0.1l24.6,14.7l0,0v0.1l28.7,72.9l0,0c1,6.9,2,14.3,3,21.8
		l0,0c5,17,10.3,35.2,15.8,53.9c0.9,3,1.8,6,2.6,9l0.1,0.2l-0.2,0.1L311,418.4l-0.2,0.1l-0.1-0.2c-5-14.5-9.8-28.5-14.4-41.7
		c-1.1-3.3-2.3-6.6-3.2-9.9s-1.8-6.5-2.6-9.8c-1.5-6.4-2.7-12.7-3.7-18.8v0.1L251.9,281h0.1c-4.2-2-8-4.8-11-8.4
		c-2.2-2.6-4-5.5-5.4-8.7c-0.8-1.9-1.5-3.9-2-6c-0.2-0.7-0.3-1.2-0.3-1.6S233.2,256,233.1,256.1c0,0,0,0.1,0.1,0.5s0.2,0.9,0.4,1.6
		c0.5,2,1.2,4,2.1,5.9c1.4,3.1,3.2,6,5.4,8.6c3,3.5,6.8,6.3,11,8.3l0,0l0,0l35.2,57.2l0,0l0,0c1,6.1,2.2,12.4,3.7,18.8
		c0.8,3.2,1.6,6.5,2.6,9.7s2.1,6.5,3.2,9.8c4.6,13.2,9.4,27.2,14.4,41.7l-0.3-0.1l28.9-10.8l-0.2,0.3c-0.9-3-1.7-6-2.6-9l-15.8-53.9
		l0,0c-1-7.5-2.1-14.9-3-21.8v0.1l-28.6-73l0.1,0.1l-24.6-14.8h0.1l-23.6,15.3l-6.3,4.1l-1.6,1L233.1,256.1z"/>
	<path class="st2" d="M248.6,132.5c0,0-8.4,6.5-12.5,13.7c-4.9,8.7-5.4,21.5-5.6,41.5c-0.1,18.5,2.6,23.6,1.5,30.6
		c-2.1,13.6-3.6,59.2-3.6,59.2s27-10.4,32.2-15l5.3-4.6l33.8,11.2l-6.8-41.5l-4.7-51.8l-6-27.4l-1-10.8l-29-11.7L248.6,132.5z"/>
	<path class="st0" d="M280.1,137c0.4,0.1-0.8,2.4-2.9,5.9l-0.1,0.1l-0.2-0.1c-2.9-1.1-6.8-2.6-11-4.1c-4.8-1.7-9.1-3.4-12.2-4.6
		c-1.5-0.6-2.8-1.2-3.6-1.6c-0.5-0.2-0.9-0.4-1.3-0.6c0.5,0.1,0.9,0.3,1.4,0.5l3.7,1.4l12.2,4.5c4.2,1.6,8.1,3,11,4.2l-0.2,0.1
		C279,139.3,280.3,137,280.1,137z"/>
	<path class="st5" d="M315.1,115.4c0,0-2.1-3.3-4.2-6.4s-5.1-4.6-5.6-6.2s-3.2-8.7-3.6-10.5c-0.4-1.7-0.5-3.5-0.5-5.2
		c0,0,2.2-0.9,3.3,2.2c0.6,1.9,2.7,8.3,3.1,8.7c0.4,0.3,1-0.2,1-0.2c-0.9-2.4-1.7-4.9-2.4-7.4c-0.1-1.2,0.3-8.9,0.3-8.9
		c1.1-0.2,2.3,0.4,2.7,1.5c1,2,1.1,7,1.1,7l1.6,5.6l-0.6-5.5l0.8-10.2c1.6,0.2,2.9,1.4,3.2,3c0.7,2.7-0.2,6.6,0.2,7.4
		s0.9,5.7,0.9,5.7s0.5-11.9,1.8-12.2s2.3,0.9,2.1,3.3s-0.2,7.5,0.4,9.7c0.7,2.2,7.4,11,6.9,14.8c-0.3,2.3-0.5,4.7-0.6,7h-11.6
		L315.1,115.4z"/>
	<path class="st5" d="M274.4,145.4c0.6,0.2,28.4,7.1,28.4,7.1s6.2-10,7.1-12.9s5.8-22.2,5.8-22.2l11.7-1.1c0,0-3,49.9-7.2,52.6
		s-11,4.1-11.4,3.9s-30,1.9-45.5-10.4S274.4,145.4,274.4,145.4z"/>
	<g class="st3">
		<path d="M254.5,171.8c3,3.4,6.9,5.7,11.3,6.7c7.4,1.6,23,4.5,23,4.5l-0.8-7.7l-34-3.6"/>
	</g>
	<path class="st2" d="M242.2,161.3c2.5,5.3,8.1,11,20.4,12.3c24.4,2.5,42.8,3.9,50.8,2.7s11.1-18.1,12-18.6c2.5-1.6,2.3-6.9,0.2-8.5
		c-6.1-4.6-18.3-8-19.1-7.6c-4.9,2.4-3.3,8.1-3.3,8.1l-30.9-6.8c-3.6-1.5-7.3-2.6-11.1-3.2"/>
	<path class="st0" d="M261.2,139.5c0,0,0.3,0,0.8,0.1s1.2,0.2,2.2,0.4c2.8,0.6,5.5,1.5,8.2,2.6l0,0l30.9,6.7l-0.3,0.3
		c-0.5-1.8-0.3-3.6,0.4-5.3c0.4-0.9,1-1.6,1.7-2.2c0.4-0.3,0.8-0.6,1.2-0.8c0.1,0,0.3-0.1,0.5-0.1h0.4c0.2,0,0.5,0.1,0.7,0.1
		c3.8,0.9,7.5,2.2,11.1,3.8c1.9,0.8,3.7,1.8,5.4,2.9c0.4,0.3,0.9,0.6,1.3,0.9c0.4,0.3,0.8,0.8,1.1,1.3c0.5,1,0.7,2.1,0.7,3.2
		c0,1.1-0.2,2.2-0.7,3.2c-0.3,0.5-0.7,1-1.1,1.3c-0.1,0.1-0.2,0.3-0.3,0.6l-0.3,0.8c-0.7,2-1.3,4.1-2.1,6.2c-1,3-2.6,5.7-4.5,8.2
		c-1.4,1.9-3.6,3-6,3.1c-0.8,0.1-1.5,0.1-2.2,0.2c-3,0.2-5.9,0.1-8.7,0.1s-5.6-0.2-8.4-0.4c-10.9-0.7-20.6-1.7-28.8-2.5
		c-2-0.2-3.9-0.5-5.8-0.8c-1.7-0.4-3.4-0.9-5-1.5c-2.6-1-5-2.5-7.1-4.5c-1.3-1.2-2.4-2.6-3.3-4.2c-0.3-0.5-0.6-1.1-0.8-1.6
		c0,0,0.3,0.6,0.9,1.6c0.9,1.5,2,2.9,3.3,4.1c2.1,1.9,4.5,3.4,7.1,4.3c1.6,0.6,3.3,1.1,5,1.5c1.9,0.4,3.9,0.6,5.8,0.8
		c8.2,0.8,17.9,1.8,28.8,2.4c2.7,0.2,5.5,0.3,8.3,0.4s5.8,0.1,8.7-0.1c0.7-0.1,1.5-0.1,2.2-0.2c0.7,0,1.4-0.2,2.1-0.4
		c1.4-0.5,2.6-1.4,3.5-2.6c1.9-2.4,3.4-5.1,4.4-8c0.8-2,1.5-4.1,2.1-6.2l0.3-0.8c0-0.1,0.1-0.2,0.2-0.4c0-0.1,0.1-0.2,0.1-0.2
		l0.1-0.1l0.1-0.1c0.4-0.3,0.8-0.7,1-1.1c0.5-0.9,0.7-2,0.7-3s-0.2-2-0.7-2.9c-0.2-0.4-0.5-0.8-0.9-1.1s-0.8-0.6-1.3-0.9
		c-1.7-1.1-3.5-2-5.4-2.8c-3.5-1.6-7.2-2.8-11-3.7c-0.2,0-0.5-0.1-0.7-0.1h-0.3h-0.2c-0.4,0.2-0.8,0.5-1.1,0.7
		c-0.7,0.5-1.3,1.2-1.6,2c-0.7,1.6-0.8,3.3-0.4,5l0.1,0.4l-0.4-0.1l-30.8-6.9l0,0c-2.6-1.1-5.3-2-8.1-2.7c-1-0.2-1.7-0.4-2.2-0.5
		S261.2,139.5,261.2,139.5z"/>
	<path class="st0" d="M313.4,159.2c-0.7-0.2-1.4-0.5-2-0.9c-1.5-0.9-2.9-1.9-4.2-3.1c-1.3-1.2-2.4-2.6-3.3-4.1c-0.4-0.6-0.7-1.3-1-2
		c1.4,2,2.9,3.9,4.6,5.7C309.4,156.4,311.3,157.9,313.4,159.2z"/>
	<path class="st5" d="M95.8,241.5c0,0,6.2,0.3,10,2.7s10,6.1,12.6,10.8c1.2,2.1-2.2,2.6-3.8,1.3s-4.2-3.6-5.4-3.9l-1.2-0.3
		c1.1,2.6,2.4,5.1,3.8,7.5c1.3,2,2.4,5.3-1.5,5.5c0,0-2.6,3.4-5.3,0.9c0,0-2.1,3.1-5.4-1.2c0,0-1.9,2.4-2.7,1.5s-3.4-2.4-4.2-5.5
		c-1.1-3.6-2.5-7.1-4-10.5L95.8,241.5z"/>
	<path class="st2" d="M43.1,160c-3.2,1-5.9,3.1-7.8,5.9c-2.4,3.7-3.1,10-2.4,14.7c1.4,9.9,6,26.7,8.6,37.5c0.9,3.7,2.7,10.4,8,13.9
		l37.9,22.7l10.1-15L63,211.5L56.1,173L43.1,160z"/>
	<path class="st0" d="M36.5,197.9c0.1,0.1,0.1,0.3,0.1,0.4l0.3,1.2c0.3,1.1,0.7,2.6,1.2,4.5c1,4,2.4,9.7,4.2,16.8
		c1,3.9,3.2,7.3,6.2,9.9c1.7,1.4,3.6,2.6,5.5,3.7l6.1,3.7l27.3,16.5l-0.4,0.1l3.6-5.4l6.5-9.6l0.1,0.4L63,211.9h-0.1v-0.1
		c-2.3-9.5-3.9-17.3-4.9-22.7c-0.5-2.7-0.9-4.8-1.1-6.3c-0.1-0.7-0.2-1.2-0.2-1.6s-0.1-0.6-0.1-0.6c0.1,0.2,0.1,0.4,0.1,0.6
		c0.1,0.4,0.2,0.9,0.3,1.6c0.3,1.4,0.7,3.5,1.2,6.2c1.1,5.4,2.8,13.2,5.1,22.7l-0.1-0.1l34.3,28.1l0.2,0.1l-0.1,0.2l-6.5,9.6
		l-3.6,5.4l-0.1,0.2l-0.2-0.1L60,238.6l-6.1-3.7c-2-1.1-3.8-2.3-5.6-3.7c-3.1-2.6-5.3-6.2-6.3-10.1c-1.7-7.1-3.1-12.8-4-16.8
		c-0.4-2-0.8-3.5-1.1-4.6l-0.3-1.2C36.6,198.2,36.5,198.1,36.5,197.9z"/>
	<path class="st0" d="M37.1,165.3c0.2-0.2,0.5-0.3,0.8-0.3c0.7-0.2,1.5-0.4,2.2-0.5c2.5-0.4,5.1,0,7.4,1c2.2,1.2,4.1,2.9,5.5,5
		c0.4,0.6,0.8,1.3,1,2.1c0.1,0.3,0.2,0.5,0.2,0.8c-0.4-0.9-0.9-1.8-1.5-2.6c-1.4-2-3.3-3.6-5.4-4.7c-2.2-1-4.7-1.4-7.1-1.1
		C38.3,165,37.2,165.4,37.1,165.3z"/>
</g>
</svg>
